<?xml version="1.0" encoding="UTF-8"?>
<svg width="499px" height="191px" viewBox="0 0 499 191" version="1.1" xmlns="http://www.w3.org/2000/svg" xmlns:xlink="http://www.w3.org/1999/xlink">
    <title>Combined Shape</title>
    <g id="Page-1" stroke="none" stroke-width="1" fill="none" fill-rule="evenodd">
        <g id="Artboard" transform="translate(0.000000, -52.000000)" fill-rule="nonzero">
            <g id="Group" transform="translate(0.000000, 52.000000)">
                <path d="M111.4,2.01963832 C127.716162,4.41056878 144.032323,9.36433118 160.348485,14.4699696 L165.412121,16.056685 C184.541414,22.0491968 203.670707,27.907644 222.8,29.7466597 C253.679298,32.8305611 284.558596,25.6803998 315.437895,17.8629367 L317.783158,17.2680775 C318.174035,17.1687722 318.564912,17.0693988 318.955789,16.9699767 L321.301053,16.3730146 C322.473684,16.0743965 323.646316,15.7756893 324.818947,15.4774169 L327.164211,14.8816069 C329.509474,14.286687 331.854737,13.6949033 334.2,13.1104469 C335.685333,12.7458365 337.170667,12.3836107 338.656,12.0246434 L340.884,11.4887455 C375.789333,3.13472208 410.694667,-3.178485 445.6,3.89121227 C464.174689,7.58396693 482.749379,14.9797441 499.000225,22.8380835 L499,100 L-2.84217094e-14,100 L-2.84217094e-14,11.2735317 L18.5666667,7.56504259 C37.1333333,3.9951886 74.2666667,-3.62974227 111.4,2.01963832 Z" id="Combined-Shape" fill="#68A1EA" opacity="0.813220796"></path>
                <g id="wave-(11)-copy" transform="translate(249.500000, 56.000000) scale(-1, 1) translate(-249.500000, -56.000000) translate(0.000000, 12.000000)" fill="#FF7D7D">
                    <path d="M0,10.6271663 L16.6333333,14.9390899 C33.2666667,19.08982 66.5333333,27.9554572 99.8,21.386826 C133.066667,15.0599849 166.333333,-6.70112452 199.6,2.04361762 C232.866667,10.6271663 266.133333,49.3135832 299.4,60.0732429 C332.666667,70.6717091 365.933333,53.7464018 399.2,47.1777706 C432.466667,40.8509295 465.733333,44.8807646 482.366667,47.1777706 L499,49.3135832 L499,88 L482.366667,88 C465.733333,88 432.466667,88 399.2,88 C365.933333,88 332.666667,88 299.4,88 C266.133333,88 232.866667,88 199.6,88 C166.333333,88 133.066667,88 99.8,88 C66.5333333,88 33.2666667,88 16.6333333,88 L0,88 L0,10.6271663 Z" id="Path"></path>
                </g>
                <g id="wave-(9)-copy" transform="translate(0.000000, 54.000000)" fill="#FEC7E6">
                    <path d="M0,7.32875845 L16.6333333,11.0059792 C33.2666667,14.7522557 66.5333333,22.0031135 99.8,20.224927 C133.066667,18.3776846 166.333333,7.32875845 199.6,2.71928457 C232.866667,-1.82113352 266.133333,-0.0947388084 299.4,3.65153772 C332.666667,7.32875845 365.933333,12.8532215 399.2,12.8532215 C432.466667,12.8532215 465.733333,7.32875845 482.366667,4.56652691 L499,1.80429537 L499,46 L482.366667,46 C465.733333,46 432.466667,46 399.2,46 C365.933333,46 332.666667,46 299.4,46 C266.133333,46 232.866667,46 199.6,46 C166.333333,46 133.066667,46 99.8,46 C66.5333333,46 33.2666667,46 16.6333333,46 L0,46 L0,7.32875845 Z" id="Path"></path>
                </g>
                <g id="wave-(12)-copy" transform="translate(0.000000, 91.000000)" fill="#FEC7E6">
                    <path d="M0,99.8 L16.6333333,86.8745139 C33.2666667,73.8104167 66.5333333,48.1673611 99.8,35.1032639 C133.066667,22.1777778 166.333333,22.1777778 199.6,20.3411806 C232.866667,18.3659722 266.133333,14.9006944 299.4,14.7967361 C332.666667,14.9006944 365.933333,18.3659722 399.2,29.5588194 C432.466667,40.54375 465.733333,59.25625 482.366667,68.3699306 L499,77.6222222 L499,0 L482.366667,0 C465.733333,0 432.466667,0 399.2,0 C365.933333,0 332.666667,0 299.4,0 C266.133333,0 232.866667,0 199.6,0 C166.333333,0 133.066667,0 99.8,0 C66.5333333,0 33.2666667,0 16.6333333,0 L0,0 L0,99.8 Z" id="Path"></path>
                </g>
            </g>
        </g>
    </g>
</svg>