<?xml version="1.0" encoding="utf-8"?>
<!-- Generator: Adobe Illustrator 17.0.0, SVG Export Plug-In . SVG Version: 6.00 Build 0)  -->
<!DOCTYPE svg PUBLIC "-//W3C//DTD SVG 1.1//EN" "http://www.w3.org/Graphics/SVG/1.1/DTD/svg11.dtd">
<svg version="1.1" id="Layer_1" xmlns="http://www.w3.org/2000/svg" xmlns:xlink="http://www.w3.org/1999/xlink" x="0px" y="0px"
	 width="1400px" height="980px" viewBox="0 0 1400 980" enable-background="new 0 0 1400 980" xml:space="preserve">
<rect fill-rule="evenodd" clip-rule="evenodd" fill="#FFFFFF" width="1400" height="980"/>
<path fill-rule="evenodd" clip-rule="evenodd" fill="#4D4D4D" d="M757.4,610.2c-14.4-2.1-66.9-44.3-81.3-57.6
	c-4.1-3.1-10.3-7.2-14.4-12.3c-5.1-4.1-10.3-8.2-14.4-13.4c-21.6-19.6-30.9,1-22.6,11.3c3.1,3.1,5.1,3.1,8.2,5.1
	c3.1,3.1,8.2,10.3,12.3,15.4c6.2,5.1,14.4,16.5,19.6,22.6c22.6,28.8,26.7,35,47.3,64.8c-15.4-3.1-95.7-49.4-112.1-60.7
	c-8.2-4.1-10.3-8.2-16.4-12.4c-7.2-6.2-17.5,0-17.5,8.2c0,7.2,9.3,11.3,13.4,15.4c10.3,8.2,30.9,36,40.1,46.3
	c8.2,10.3,15.4,22.6,24.7,32.9l25.7,32.9c-26.7-8.2-71-43.2-93.6-60.7c-4.1-3.1-9.2-10.3-15.4-10.3c-8.2-1.1-13.4,7.2-8.2,14.4
	c2.1,3.1,3.1,3.1,5.1,7.2l14.4,24.7c24.7,43.2,36,53.5,66.8,88.5c-18.5-6.2-45.3-27.8-58.6-36c-11.3-7.2-17.5-12.4-27.8-19.5
	c-4.1-4.1-21.6-19.6-27.8-19.6c-6.2,0-11.3,7.2-8.2,13.4c1,3.1,9.2,9.3,11.3,12.4c7.2,7.2,13.4,18.5,20.6,26.7
	c7.2,10.3,13.4,16.5,21.6,25.7c7.2,7.2,14.4,17.5,21.6,25.7c-23.7-9.3-82.3-54.5-95.7-51.5c-17.5,4.1,6.2,29.9,12.3,39.1l51.4,75.1
	l-50.4-40.2c-28.8-19.5-49.4-41.1-54.5-16.5c2.1,3.1,22.6,16.5,26.7,20.6c17.5,13.4,37,26.7,53.5,41.1c8.2,7.2,16.4,14.4,27.8,19.6
	c17.5,9.2,25.7-2.1,22.6-14.4c-4.1-13.4-45.3-71-55.5-86.4c8.2,3.1,58.6,40.1,85.4,43.2c8.2,1,16.4-7.2,13.4-16.5
	c-4.1-8.2-10.3-11.3-15.4-17.5c-7.2-7.2-22.6-25.7-29.8-35c18.5,11.3,58.6,40.1,80.2,34c15.4-4.1,6.2-16.5,1-22.7
	c-6.2-6.2-12.4-13.4-17.5-20.6c-27.8-30.8-26.7-27.8-51.4-64.8c6.2,3.1,18.5,12.4,23.7,16.5c9.2,5.1,82.3,49.4,79.2,16.5
	c-1-16.5-36-50.4-50.4-70l-17.5-23.7c4.1,2.1,30.9,17.5,39.1,21.6c13.4,6.2,27.8,14.4,42.2,19.5c19.5,9.3,37,2.1,25.7-21.6
	c-4.1-7.2-18.5-28.8-24.7-37c7.2,3.1,14.4,10.3,23.7,14.4c9.3,5.1,16.4,8.2,27.8,11.3c5.1,1,11.3,2.1,16.4,1c3.1-1,9.2-5.1,10.3-9.2
	c3.1-9.3-8.2-20.6-12.4-26.7c-10.3-16.5-18.5-32.9-27.8-49.4c-7.2-11.3-19.6-36-27.8-50.4c-5.1-8.2-11.3-13.4-15.4-22.7
	c-4.1-5.1-12.4-18.5-23.7-15.4c-4.1,2.1-7.2,7.2-6.2,13.4c1,5.1,5.1,8.3,8.2,11.3l16.4,22.6c9.3,15.4,17.5,34,26.7,50.4L757.4,610.2
	z"/>
<path fill-rule="evenodd" clip-rule="evenodd" fill="#4D4D4D" d="M477.6,660.7c-6.2-4.1-17.5-27.8-22.6-35
	c-4.1-6.2-19.5-37-29.8-21.6c8.2,28.8,16.4,58.6,24.7,87.5c-9.2-12.4-17.5-24.7-26.7-37c-5.1-7.2-21.6-36-32.9-27.8
	c-7.2,4.1-1,16.5,2,23.7c9.3,28.8,13.4,48.4,20.6,77.2c-9.2-5.1-25.7-28.8-33.9-40.2c-6.2-8.2-25.7-40.1-32.9-42.2
	c-20.6-4.1,18.5,93.7,22.6,108c-17.5-16.5-42.2-71-46.3-75.1c-2.1-4.1-9.3-3.1-11.3,0c-3.1,4.1,12.3,63.8,14.4,75.1
	c-13.4-13.4-22.6-38.1-32.9-53.5c-11.3-14.4-23.7-18.5-20.6,5.1c2,9.3,13.4,44.3,16.4,54.5c-7.2-7.2-51.4-80.3-60.7-63.8
	c-7.2,11.3,11.3,59.7,26.7,102.9c-2.1-2.1-47.3-61.8-50.4-65.9c-3.1-4.1-9.3-15.4-16.4-8.3c-8.2,6.2,10.3,56.6,14.4,67.9
	c-12.4-14.4-21.6-30.8-32.9-46.3c-16.5-21.6-32.9-6.2-21.6,24.7c-8.2-10.3-21.6-32.9-31.9-19.5c-2,8.2,4.1,12.3,11.3,21.6
	c14.4,18.5,15.4,17.5,30.8,41.1c5.1,8.3,9.3,14.4,14.4,21.6c4.1,7.2,9.2,17.5,19.5,16.5c14.4-2.1,4.1-17.5-10.3-47.3
	c-4.1-8.2-7.2-16.5-11.3-24.7c4.1,7.2,42.2,56.6,46.3,58.6c9.2,3.1,16.4-1.1,16.4-9.3s-17.5-49.4-20.6-58.6
	c7.2,6.2,16.4,21.6,23.7,29.8c5.1,7.2,18.5,27.8,30.9,19.6c11.3-10.3-4.1-49.4-15.4-84.4c9.2,12.3,18.5,23.7,27.8,36
	c6.2,7.2,14.4,21.6,22.6,18.5c6.2-1,7.2-7.2,5.1-14.4c-3.1-11.3-6.2-22.7-9.3-34c7.2,11.3,22.6,36,30.9,39.1
	c19.6,4.1,8.2-28.8,7.2-46.3c6.2,6.2,29.8,52.5,44.2,35c8.2-10.3-9.3-47.3-13.4-71c12.3,12.3,28.8,43.2,47.3,47.3
	c17.5,2,14.4-23.7,12.3-32.9c-4.1-14.4-6.2-22.6-11.3-37c13.4,14.4,20.6,27.8,31.9,36c24.7,18.5,18.5-23.7,17.5-36
	c5.1,6.2,15.4,20.6,24.7,21.6c6.2,0,11.3-5.1,12.4-10.3c4.1-20.6-38.1-118.3-43.2-120.4c-6.2-4.1-13.4,1-13.4,8.2
	C444.7,579.4,475.5,642.1,477.6,660.7L477.6,660.7z"/>
<path fill-rule="evenodd" clip-rule="evenodd" fill="#4D4D4D" d="M1338.5,235.7c-32.9,16.5-66.8,32.9-99.8,48.4
	c-9.2,4.1-43.2,18.6-50.4,23.7c-4.1,4.1-6.2,12.4-1,17.5c7.2,7.2,28.8-2.1,39.1-4.1c28.8-4.1,58.6-7.2,87.4-11.3
	c-24.7,12.4-85.4,44.3-104.9,58.6c-2.1,2.1-8.2,7.2-10.3,10.3c-4.1,5.1-3.1,11.3,1,15.4c7.2,8.2,22.6,3.1,33.9,1.1
	c19.5-3.1,52.4-6.2,73-9.3c-13.4,9.3-82.3,37-86.4,48.4c-4.1,8.3,1,16.5,8.3,17.5c8.2,1,40.1-3.1,50.4-4.1
	c17.5-1.1,33.9-3.1,50.4-4.1c13.4-1,43.2,5.1,42.2-12.4c0-9.2-7.2-10.3-16.4-10.3c-25.7-1-52.5,2.1-79.2,4.1
	c3.1-3.1,18.5-9.3,22.6-11.3c13.4-7.2,58.6-28.8,58.6-41.2c1-19.5-38-10.3-51.4-8.2c-19.6,2.1-40.1,5.1-59.7,7.2
	c3.1-4.1,37-21.6,41.2-23.7c14.4-8.2,27.8-15.4,42.2-23.7c6.2-3.1,16.4-8.9,18.5-14c6.2-9.2-1-17.2-9.3-19.2c-20.6,0-41.1,0-61.7,0
	c13.4-10,61.7-32.3,79.2-41.6c8.2-4.1,20.6-11.5,12.4-23.9c-16.5-20.6-80.3-19.6-139.9-20.7c14.4-9.2,73-41.2,78.2-47.3
	c7.2-8.3-4.1-14.4-12.3-12.4c-13.4,4.1-48.4,25.7-60.7,33.9c-11.3,6.2-32.9,14.4-41.2,21.6c-7.2,6.2-4.1,17.5,2.1,20.6
	c6.2,4.1,19.5,4.1,27.8,4.1C1242.9,225.4,1324.1,229.5,1338.5,235.7L1338.5,235.7z"/>
<path fill-rule="evenodd" clip-rule="evenodd" fill="#4D4D4D" d="M1309.7,747.1c-16.4,5.1-32.9,10.3-49.3,15.4
	c-13.4,3.1-65.8,14.4-71,25.7c-2.1,4.1-1,9.2,2.1,12.3c4.1,4.1,7.2,3.1,13.4,3.1c16.4,1,37,7.2,53.5,12.3c-17.5,2.1-36,2.1-53.5,2.1
	c-18.5-1-32.9-4.1-47.3,6.2c-6.2,4.1-11.3,10.3-4.1,17.5c4.1,5.1,12.4,6.2,18.5,9.2l40.1,15.4c-14.4,0-74.1-4.1-85.4,7.2
	c-2.1,2.1-8.2,14.4,8.2,18.5c1,0,57.6,20.6,62.8,23.7l7.2,4.1c-15.4,1-27.8,0-43.2,2c-12.3,1.1-32.9,0-32.9,12.4
	c-1.1,15.4,19.5,10.3,31.9,9.3c16.4-2.1,25.7-3.1,43.2-3.1c15.4,0,57.6,8.3,53.5-12.3c-3.1-12.4-58.6-35-74.1-41.2
	c11.3-4.1,65.8,1.1,81.3,1.1c5.1,0,11.3,1,15.4-2.1c3.1-3.1,4.1-8.2,2.1-13.4c-4.1-7.2-50.4-22.7-62.8-26.7
	c-6.2-3.1-8.2-3.1-13.4-6.2c23.7-1,66.8-2.1,82.3-13.4c7.2-4.1,13.4-19.5-8.2-26.7l-37-10.3c27.8-9.2,54.5-15.4,82.3-24.7
	c6.2-2.1,12.4-5.1,19.6-7.2c8.2-3.1,14.4-2.1,16.4-10.3c5.1-14.4-21.6-15.4-36-16.5c-24.7-3.1-50.4-2.1-75.1-5.1
	c-7.2-1.1-16.4-4.1-22.6,0c-7.2,6.2,0,14.4,7.2,15.4C1258.3,746.1,1286.1,745,1309.7,747.1L1309.7,747.1z"/>
<path fill-rule="evenodd" clip-rule="evenodd" fill="#4D4D4D" d="M903.4,330.4c-3.1-11.3-17.5-70-24.7-75.1
	c-7.2-5.1-14.4,0-14.4,7.2c0,3.1,14.4,53.5,16.5,60.7c4.1,15.4,14.4,78.2,36,60.7c9.3-8.2,5.1-27.8,7.2-43.2l6.2-45.3
	c3.1,4.1,37,93.6,43.2,99.8c6.2,8.2,16.4,11.3,20.6,2c3.1-6.2,2-25.7,1-32.9l1-70c2.1,1.1,44.2,97.8,51.4,111.2
	c4.1,9.2,18.5,15.4,22.6,4.1c3.1-8.2-1-29.8-2-38.1l-4.1-75.1c5.1,16.5,11.3,30.9,16.4,46.3c5.1,12.3,18.5,62.8,26.8,68.9
	c8.2,6.2,18.5-1.1,16.4-10.3c0-1-7.2-17.5-8.2-22.7c-10.3-28.8-14.4-40.1-25.7-70c-3.1-9.3-14.4-41.2-18.5-45.3
	c-2.1-3.1-6.9-4.1-11-2.1c-4.1,2.1-13.1,10.3-13.1,35v59.7c-12-27.8-32.2-66.9-38.4-94.7c-2.1-10.3-13.5-13.4-19.7-5.1
	c-4.1,6.2-8.3,16.5-9.4,24.7l-5.2,61.8c-3.1-3.1-16.5-36-19.5-43.2c-3.1-7.2-10.3-26.7-12.4-35c-1-4.1-1-10.3-3.1-13.4
	c-3.1-8.2-14.4-7.2-18.5,1c-2.1,8.3-4.1,16.5-7.2,25.7c-2.1,8.2-4.1,16.5-5.1,25.7C906.5,310.8,905.5,324.2,903.4,330.4L903.4,330.4
	z"/>
<path fill-rule="evenodd" clip-rule="evenodd" fill="#4D4D4D" d="M1184.2,538.2c2.1,4.1,10.3,70,10.3,83.3c1,10.3,2,18.5,13.4,18.5
	c14.4,0,19.5-26.7,23.7-39.1c7.2-18.5,9.2-27.8,15.4-47.3c0,10.3,2,21.6,2,30.8c1,12.4,0,23.7,1,35c1,15.4-3.1,40.1,15.4,36
	c10.3-3.1,20.5-39.1,29.8-56.6l21.6-47.3c2.1,17.5-10.3,83.4-4.1,92.6c4.1,4.1,12.3,6.2,17.5,1c6.2-7.2,22.6-43.2,52.5-74.1
	c4.1-4.1,9.3-8.2,12.4-12.3c4.1-7.2-1.1-15.4-7.2-16.5c-9.2-2-11.3,5.1-16.4,8.3c-9.3,8.2-26.7,29.8-35,41.1c0-9.2,1-19.5,2-28.8
	c1-9.2,1-20.6,1-30.8c0-9.3,0-19.6-5.1-25.7c-16.5-18.5-37,37-42.2,46.3l-19.6,44.3c-1-1-1-3.1-2-5.1c-1-19.5-4.1-60.7-7.2-77.2
	c-2.1-8.2-9.3-15.4-17.5-9.3c-8.2,7.2-14.4,29.9-18.5,43.2c-6.2,19.5-7.2,24.7-14.4,45.3c-4.1-19.5-9.3-92.6-22.6-98.8
	c-15.4-6.2-19.5,24.7-23.7,35c-5.1,15.4-10.3,30.8-15.4,45.3c-5.1,15.4-10.3,30.9-14.4,46.3c-2.1,5.1-6.2,19.6,1,22.7
	c10.3,4.1,8.2-6.2,14.4-16.5C1162.7,606.2,1178,548.5,1184.2,538.2L1184.2,538.2z"/>
<path fill-rule="evenodd" clip-rule="evenodd" fill="#4D4D4D" d="M902.4,496c-2.1-12.4-3.1-43.2-8.2-50.4c-3.1-3.1-11.3-4.1-14.4,1
	c-4.1,6.2,5.1,92.6,14.4,100.8c3.1,4.1,9.2,3.1,13.4,0c5.1-3.1,6.2-6.2,7.2-12.3l16.4-62.8c3.1,22.6,9.2,90.5,19.5,102.9
	c6.2,6.2,13.4,8.2,19.6,0c7.2-9.3,13.4-63.8,15.4-77.2c2.1,20.6,2.1,44.2,3.1,65.9c0,9.2-1,26.7,0,35c1,8.2,12.3,16.5,20.5,8.2
	c11.3-10.3,18.5-27.8,26.8-43.2c5.1-8.3,18.5-31.9,25.7-39.1l2.1-3.1c1,18.5-1,37-1,55.6c-1,21.6-7.2,43.2,8.2,44.2
	c9.2,1.1,12.4-6.2,13.4-14.4c1-35,2.1-73.1,5.1-108c0-9.2,5.1-17.5-1-23.7c-13.4-11.3-28.8,12.4-32.9,19.5
	c-8.2,10.3-16.4,20.6-23.7,32.9c-8.2,13.4-13.4,22.7-20.6,36c-3.1-30.9-4.1-58.7-4.1-89.5c0-11.3,2-18.5-6.2-24.7
	c-13.4-9.2-27.8,22.7-29.8,27.8L960,529c-3.1-5.1-10.3-56.6-10.3-70c0-8.2,1-19.6-4.1-23.7c-13.4-10.3-22.6,14.4-27.8,21.6
	C907.5,474.4,905.5,490.9,902.4,496L902.4,496z"/>
<path fill-rule="evenodd" clip-rule="evenodd" fill="#4D4D4D" d="M72.4,353.1c-3.1,4.1-8.2,7.2-16.4,18.5
	c-6.2,6.2-10.3,12.3-15.4,19.5l-26.7,43.2c-3.1,4.1-16.4,16.5-6.2,22.7c8.2,6.2,26.7-11.3,45.3-20.6l24.7-11.3
	c-1,4.1-22.6,32.9-26.7,38.1l-27.8,38.1c-5.1,11.3,6.2,15.4,16.4,10.3c6.2-4.1,12.4-9.3,18.5-14.4l44.2-21.6
	c-1,3.1-19.6,25.7-24.7,31.9c-4.1,6.2-7.2,10.3-12.3,16.5c-4.1,6.2-7.2,10.3-11.3,17.5l-11.3,17.5c-4.1,9.2,5.1,14.4,13.4,11.3
	c4.1-1,6.2-3.1,10.3-4.1c3.1-2,7.2-3.1,10.3-4.1c32.9-9.3,43.2-14.4,72-28.8c3.1-1.1,7.2-3.1,10.3-4.1c6.2-4.1,7.2-14.4-2.1-16.5
	c-6.2-2.1-31.9,12.4-39.1,15.4l-43.2,15.4c1-3.1,24.7-35,28.8-40.1l30.9-39.1c4.1-4.1,14.4-14.4,5.1-21.6
	c-7.2-5.1-18.5,3.1-24.7,6.2c-19.5,10.3-28.8,13.4-47.3,22.6c2.1-6.2,14.4-20.6,19.6-26.7c10.3-15.4,33.9-36,35-43.2
	c4.1-20.6-32.9-1-39.1,2.1l-42.2,20.6c3.1-9.2,29.9-48.4,37-54.5c6.2-5.1,10.3-10.3,17.5-14.4c6.2-4.1,15.4-7.2,17.5-13.4
	c5.1-22.6-30.9-11.3-42.2-7.2l-21.6,9.2l28.8-40.1c11.3-14.4-1-26.7-12.3-11.3c-4.1,4.1-7.2,8.2-10.3,13.4
	c-9.3,13.4-47.3,58.6-49.4,66.9c-3.1,7.2,0,14.4,7.2,14.4c5.1,0,10.3-6.2,14.4-8.2C38.5,370.6,60.1,357.2,72.4,353.1L72.4,353.1z"/>
<path fill-rule="evenodd" clip-rule="evenodd" fill="#4D4D4D" d="M500.2,268.6c-20.5-3.1-47.3-20.6-63.8-31.9
	c-4.1-3.1-14.4-14.4-21.6-4.1c-2.1,5.1-2.1,8.2,1,12.4c4.1,7.2,12.4,38.1,21.6,57.6l11.3,21.6c-25.7-3.1-98.8-34-136.8-39.1
	c-27.8-4.1-15.4,20.6-10.3,35l20.6,66.9c3.1,8.2,8.2,15.4,16.4,9.2c8.2-6.2-4.1-37-6.2-46.3l-15.4-44.2
	c25.7,3.1,120.4,42.2,142,39.1c10.3-2.1,10.3-16.5,8.2-26.8c-2.1-7.2-8.2-16.5-12.4-23.7l-10.3-27.8c18.5,7.2,21.6,17.5,67.9,25.7
	c10.3,2,17.5-1.1,18.5-11.3c0-6.2-7.2-14.4-9.2-21.6c-11.3-24.7-20.6-37-35-58.6c20.6,0,41.2,1,61.7,0l58.6-3.1
	c8.2-1.1,14.4-9.3,10.3-18.5c-4.1-8.2-12.4-7.2-22.6-6.2c-20.6,0-40.1,2.1-59.6,3.1c-19.6,1-41.2,1-59.7-2.1
	c-4.1,0-30.9-11.3-29.8,8.2c0,6.2,3.1,8.2,6.2,10.3C461.1,200.7,496.1,254.2,500.2,268.6L500.2,268.6z"/>
<path fill-rule="evenodd" clip-rule="evenodd" fill="#4D4D4D" d="M631.9,48.4c0,15.4-9.2,68.9-2.1,78.2c7.2,12.3,20.6,3.1,27.8-1.1
	l26.7-15.4c-2.1,6.2-6.2,13.4-9.2,20.6c-9.3,28.8-16.5,43.2-25.7,66.9c-3.1,9.2,2.1,16.5,11.3,16.5c8.2,0,15.4-6.2,21.6-9.3
	l40.1-21.6c-3.1,8.2-39.1,51.5-46.3,62.8c-3.1,5.1-8.2,11.3-4.1,18.5c9.3,18.5,32.9-1,56.6-10.3c11.3-5.1,49.4-16.5,62.8-18.5
	c7.2-2.1,14.4-6.2,11.3-15.4c-5.1-12.3-29.8-4.1-42.2-1c-18.5,4.1-25.7,7.2-43.2,13.4c1-5.1,8.2-13.4,12.3-17.5
	c4.1-6.2,7.2-11.3,11.3-17.5c7.2-9.3,23.7-27.8,22.6-36c-5.1-27.8-67.9,9.3-80.2,15.4c5.1-13.4,10.3-25.7,14.4-40.1
	c9.3-23.7,28.8-45.3,13.4-55.6c-6.2-5.1-15.4-1.1-21.6,1c-13.4,5.1-26.7,12.4-39.1,19.5c1-35,15.4-73-3.1-80.2
	c-5.1-2.1-9.2,1-13.4,3.1c-8.2,4.1-15.4,9.3-23.7,13.4c-8.2,5.1-15.4,10.3-21.6,15.4c-8.2,8.2-13.4,19.6-2.1,23.7
	c6.2,2.1,8.2-2.1,11.3-6.2C602,64.9,626.7,50.5,631.9,48.4L631.9,48.4z"/>
<path fill-rule="evenodd" clip-rule="evenodd" fill="#4D4D4D" d="M745,404.5c-6.2-25.7-15.4-45.3-24.7-67.9
	c-8.2-22.6-22.6-12.3-24.7-5.1c-2,13.4-5.1,25.7-7.2,39.1c-3.1-5.1-5.1-25.7-7.2-34c-1-12.3-1-28.8-16.4-25.7
	c-8.2,2-11.3,17.5-15.4,26.7c-4.1,10.3-7.2,20.6-11.3,30.8c-4.1,9.3-8.3,20.6-13.4,28.8c-3.1,4.1-7.2,7.2-6.2,14.4
	c1,5.1,14.4,23.7,31.9-13.4c4.1-10.3,8.2-19.6,12.4-29.9c7.2,15.4,6.2,61.8,21.6,64.8c18.5,4.1,17.5-39.1,26.7-58.6
	c12.4,14.4,8.2,56.6,23.7,65.9c32.9,17.5,46.3-78.2,50.4-98.8c5.1,10.3,17.5,29.9,25.7,46.3c5.1,8.2,8.2,16.5,13.4,22.6
	c3.1,7.2,9.3,19.6,20.6,12.4c11.3-5.1,9.3-15.4,2.1-25.7c-13.4-18.5-43.2-83.3-61.7-88.5c-13.4-5.1-19.5,10.3-22.6,21.6
	C758.4,348.9,754.3,392.1,745,404.5L745,404.5z"/>
<path fill-rule="evenodd" clip-rule="evenodd" fill="#4D4D4D" d="M377.8,473.4c-17.5-5.1-38.1-23.7-48.3-26.7
	c-6.2-2.1-17.5-3.1-22.6,1.1c-12.4,10.3-2.1,22.6,4.1,32.9l18.5,31.9c-5.1-3.1-10.3-7.2-16.5-10.3c-5.1-3.1-11.3-7.2-15.4-11.3
	c-8.2-5.1-26.7-21.6-33.9-6.2l28.8,78.2c-5.1-2.1-8.3-6.2-12.4-9.2c-6.2-4.1-21.6-15.4-27.8-16.5c-7.2-1-14.4,2.1-16.4,6.2
	c-3.1,6.2,6.2,26.7,9.3,32.9c4.1,10.3,23.7,55.6,26.7,61.8c7.2,11.3,25.7,3.1,18.5-11.3L262.6,566l45.3,34c4.1,2.1,6.2,5.1,9.3,7.2
	c8.2,6.2,18.5-1,16.4-11.3c0-2.1-9.2-17.5-11.3-20.6c-5.1-7.2-27.8-53.5-32.9-63.8c8.2,2.1,28.8,18.5,36,23.7
	c6.2,5.1,10.3,8.2,17.5,12.3c7.2,4.1,14.4,9.3,19.5,0c5.1-7.2-1-15.4-4.1-21.6c-10.3-21.6-19.5-38.1-31.9-58.6
	c13.4,9.2,48.4,32.9,67.9,30.9c5.1-1.1,11.3-7.2,10.3-14.4c0-3.1-6.2-13.4-7.2-17.5L386,427.1c4.1,5.1,20.6,22.6,26.7,23.7
	c6.2,0,9.3-3.1,10.3-7.2c3.1-9.3-7.2-16.5-11.3-20.6c-6.2-6.2-11.3-11.3-17.5-17.5c-4.1-4.1-11.3-15.4-20.6-13.4
	C352.1,397.2,373.7,454.9,377.8,473.4L377.8,473.4z"/>
<path fill-rule="evenodd" clip-rule="evenodd" fill="#4D4D4D" d="M356.2,909.7c-3.1-13.4-7.2-27.8-9.3-41.2
	c-8.2-45.3-24.7-17.5-36,11.3l-13.4,38.1c-7.2-20.6-8.2-80.3-40.1-46.3c-7.2,9.3-13.4,21.6-18.5,34c-6.2,17.5-8.2,22.7-13.4,40.1
	c11.3,14.4,19.6-16.5,23.7-25.7c7.2-17.5,14.4-31.9,21.6-37c5.1,17.5,10.3,52.4,14.4,61.7c2.1,4.1,8.2,11.3,16.4,7.2l29.8-72.1
	c2.1,15.4,6.2,32.9,10.3,48.4c2.1,10.3,7.2,42.2,22.6,28.8c8.2-6.2,6.2-31.9,8.2-49.4l10.3-48.4c3.1,10.3,12.4,84.4,24.7,94.6
	c17.5,15.4,16.4-28.8,17.5-36l8.2-51.5c3.1,14.4,5.1,26.7,8.2,41.2c4.1,13.4,6.2,27.8,9.3,41.2c2,7.2,3.1,12.3,9.2,15.4
	c7.2,3.1,13.4-2,14.4-8.2c0-9.2-3.1-13.4-5.1-19.5c-3.1-7.2-13.4-50.4-15.4-59.7c-2.1-10.3-5.1-32.9-11.3-39.1
	c-19.5-19.5-30.8,48.4-33.9,61.8c-5.1-18.5-8.3-42.2-13.4-58.6c-3.1-5.1-10.3-9.3-16.5-4.1C365.5,849,360.3,886,356.2,909.7
	L356.2,909.7z"/>
<path fill-rule="evenodd" clip-rule="evenodd" fill="#4D4D4D" d="M80.5,53.6c-3.1,4.1-54.5,46.3-58.6,53.5
	c-5.1,8.3,2.1,16.5,10.3,15.4c4.1,0,16.4-4.1,21.6-6.2l45.3-9.3c-2.1,2.1-4.1,4.1-6.2,6.2c-3.1,2.1-5.1,3.1-7.2,6.2
	c-7.2,5.1-59.7,48.4-60.7,50.4c-4.1,8.2,2.1,15.4,10.3,15.4l46.3-7.2l-52.5,37c-4.1,3.1-8.2,4.1-9.3,9.3
	c-4.1,20.6,38.1,16.5,56.6,17.5c9.2,0,27.8,2.4,32.9-2.7c4.1-4.1,7.2-18.2-11.3-19.2H61c3.1-6,48.3-35.4,58.6-41.6
	c4.1-3.1,10.3-6.4,10.3-14.6c0-9.3-7.2-10.4-15.4-10.4l-45.3,5.1c5.1-7.2,37-31.9,45.3-39.1c6.2-5.1,9.3-9.3,15.4-13.4
	c4.1-4.1,12.4-8.2,8.2-17.5c-6.2-10.3-39.1-1-48.3,1l-24.7,4.1c3.1-5.1,31.9-27.8,40.1-34c4.1-3.1,7.2-5.1,10.3-8.2
	c4.1-2,7.2-5.1,6.2-12.3c-3.1-10.3-18.5-8.2-29.9-7.2c-12.3,0-23.7,1-35,2.1C46.6,35,31.1,33,26,40.2c-3.1,4.1-2,10.3,2.1,12.4
	c3.1,3.1,10.3,3.1,15.4,3.1C55.9,55.6,67.2,53.6,80.5,53.6L80.5,53.6z"/>
<path fill-rule="evenodd" clip-rule="evenodd" fill="#4D4D4D" d="M939.4,643.2c-19.5,2-63.8-10.3-83.3-16.5
	c-10.3-3.1-21.6,0-19.5,12.4c2.1,8.2,13.4,9.3,19.5,13.4c9.3,4.1,21.6,14.4,28.8,21.6l27.8,22.7c-13.4,0-26.7-1-39.1-2.1
	c-19.5-1-42.2-10.3-52.5-3.1c-17.5,10.3,2.1,24.7,11.3,36l21.6,19.5c5.1,3.1,21.6,15.4,28.8,8.2c9.3-10.3-8.2-19.5-14.4-22.6
	l-21.6-20.6c7.2,0,15.4,3.1,23.7,3.1c8.2,1,16.4,2.1,24.7,2.1c10.3,0,46.3,3.1,52.5,0c7.2-4.1,6.2-12.4,1-17.5
	c-3.1-5.1-9.2-9.2-13.4-13.4l-28.8-23.7c7.2-1,21.6,2.1,30.9,2.1c10.3,1,22.6,0,31.9-3.1c10.3-4.1,9.3-15.4,2.1-22.7
	c-3.1-4.1-9.3-7.2-18.5-17.5c-22.6-26.7-46.3-46.3-80.2-61.7c-13.4-6.2-29.9-18.5-32.9-19.5c-10.3-1.1-25.7,11.3-2.1,26.7
	c40.1,26.7,42.2,14.4,84.3,57.6C928.1,630.8,934.3,637,939.4,643.2L939.4,643.2z"/>
<path fill-rule="evenodd" clip-rule="evenodd" fill="#4D4D4D" d="M1052.6,66.9c0,19.6-8.2,41.2-8.2,71c0,9.3,4.1,14.4,13.4,13.4
	c7.2,0,12.3-6.2,16.4-9.2c14.4-13.4,27.8-25.7,42.2-39.1c-3.1,14.4-11.3,38.1-17.5,51.4c-6.2,15.4-20.5,41.2,1,45.3
	c9.2,2,18.5-7.2,23.7-10.3c14.4-12.4,91.5-58.7,107-63.8c8.2-3.1,13.4-13.4,5.1-20.6c-8.2-7.2-19.5,0-25.7,3.1
	c-25.7,14.4-57.6,35-86.4,50.4c5.1-15.4,10.3-31.9,15.4-47.3c5.1-13.4,17.5-38.1,1-47.3c-13.4-8.2-48.3,35-72,52.5
	c0-15.4,18.5-80.3-8.2-74.1c-11.3,2.1-23.7,13.4-29.9,18.5c-12.3,11.3-39.1,38.1-45.3,51.4c-4.1,6.2-2.1,14.4,5.1,14.4
	c8.2,1,9.3-7.2,13.4-11.3c7.2-10.3,14.4-16.5,23.7-24.7C1032,85.5,1046.4,70,1052.6,66.9L1052.6,66.9z"/>
<path fill-rule="evenodd" clip-rule="evenodd" fill="#4D4D4D" d="M232.8,112.2c-3.1,31.9-30.9,72.1-9.3,78.2
	c9.3,3.1,26.8-13.4,38.1-22.7c-3.1,15.4-24.7,44.3-25.7,52.5c-3.1,34,52.5,4.1,85.4,0c15.4,0,21.6-12.3,12.4-19.5
	c-9.2-8.2-44.2,6.2-65.8,9.2c1-6.2,21.6-42.2,25.7-62.7c3.1-16.5-6.2-24.7-20.6-17.5c-8.2,6.2-17.5,13.4-25.7,19.5
	c2.1-11.3,7.2-27.8,10.3-39.1c3.1-11.3,11.3-32.9,0-38.1c-7.2-4.1-14.4,1.1-18.5,4.1c-17.5,13.4-24.7,20.6-40.1,36
	c0-14.4,14.4-72-10.3-67.9c-11.3,2-9.2,20.6-9.2,32.9c-2.1,22.7-8.3,53.5-8.3,77.2c0,13.4,17.5,17.5,23.7,5.1
	C201.9,144.1,222.5,118.4,232.8,112.2L232.8,112.2z"/>
<path fill-rule="evenodd" clip-rule="evenodd" fill="#4D4D4D" d="M32.2,849c4.1,15.4,24.7,88.5,31.9,95.7
	c4.1,4.1,14.4,6.2,15.4-12.4c1-10.3,0-20.6,1-30.8L90.8,849c4.1,27.8,9.3,86.4,20.6,107c4.1,9.3,16.4,6.2,18.5-3.1
	c1-6.2,1-22.6,2.1-29.8l10.3-53.5l20.5,84.4c2.1,7.2,2.1,15.4,6.2,19.6c6.2,6.2,14.4,2.1,13.4-7.2c-1-7.2-19.6-74.1-21.6-84.4
	c-2.1-7.2-8.3-38.1-11.3-41.1c-2.1-2.1-6.2-3.1-10.3-2.1c-3.1,2.1-4.1,4.1-5.1,8.2c-9.2,23.7-11.3,38.1-16.4,63.8
	c-3.1-8.2-6.2-37-8.2-48.4c-3.1-18.5-1-41.2-12.4-45.3c-8.2-3.1-12.3,5.1-14.4,11.3c-10.3,20.6-14.4,44.3-18.5,67.9
	c-6.2-15.4-16.4-53.5-22.6-72.1c-2-6.2-3.1-12.3-11.3-12.3c-7.2,1-7.2,7.2-10.3,13.4c-8.2,23.7-5.1,64.8-5.1,90.5
	c0,6.2-1,17.5,1,22.7c2,9.2,10.3,10.3,13.4,3.1C35.3,925.1,26,863.4,32.2,849L32.2,849z"/>
<path fill-rule="evenodd" clip-rule="evenodd" fill="#4D4D4D" d="M1113.3,751.2c-10.3-10.3-55.5-58.7-64.8-57.6
	c-3.1,1-7.2,5.1-8.2,9.2l35,106c-10.3-5.1-26.7-22.6-35-31.9c-8.2-6.2-46.3-47.3-51.4-48.4c-6.2-2.1-17.5,3.1-5.1,18.5
	c16.4,18.5,55.5,60.7,76.1,74.1c6.2,7.2,20.5,20.6,31.9,16.5c17.5-6.2-13.4-66.9-19.6-99.8c4.1,5.1,9.3,9.2,14.4,14.4
	c9.2,10.3,35,37,48.3,41.2c7.2,2,15.4-5.1,15.4-12.4c0-13.4-22.6-47.3-29.8-60.7c14.4,5.1,35,31.9,47.3,26.7
	c5.1-1,10.3-8.2,6.2-15.4c-1-3.1-43.2-30.8-56.6-44.3c-5.1-5.1-7.2-7.2-12.3-12.3c-3.1-3.1-10.3-11.3-12.4-13.4
	c-6.2-4.1-14.4-2.1-16.4,4.1c-5.1,7.2,2.1,12.4,4.1,17.5C1091.7,710.1,1100.9,726.5,1113.3,751.2L1113.3,751.2z"/>
<path fill-rule="evenodd" clip-rule="evenodd" fill="#4D4D4D" d="M1010.4,916.9c-13.4-17.5-20.6-59.7-29.8-64.8
	c-5.1-4.1-12.4-1.1-13.4,5.1c-1,6.2-1,16.5-2,22.6c-1,10.3-1,32.9-7.2,42.2c-3.1-11.3-22.6-54.5-30.9-65.9
	c-5.1-9.2-11.3-12.3-20.6-4.1c-14.4,12.4-28.8,75.1-27.8,84.4c6.2,24.7,17.5-10.3,21.6-23.7c3.1-10.3,8.2-32.9,14.4-40.1
	c3.1,4.1,14.4,29.8,17.5,36c5.1,12.4,9.3,25.7,15.4,38.1c2.1,6.2,5.1,14.4,12.4,14.4c8.2,0,10.3-7.2,11.3-15.4
	c4.1-17.5,6.2-23.7,10.3-44.2c2.1,4.1,5.1,11.3,7.2,16.5c6.2,11.3,19.6,41.1,26.8,44.3c17.5,7.2,13.4-20.6,13.4-31.9V883
	c3,3.1,7.2,12.3,10.2,16.5c6.2,12.3,23.6,37,31.9,48.4c2.1,4.1,7.2,14.4,10.3,16.5c6.2,4.1,15.4,0,16.4-6.2c1-8.2-34-57.6-41.2-66.9
	c-6.2-8.2-12.3-21.6-20.5-34c-3.1-6.2-6.2-12.4-15.4-11.3C1005.3,847.9,1012.5,892.2,1010.4,916.9L1010.4,916.9z"/>
<path fill-rule="evenodd" clip-rule="evenodd" fill="#4D4D4D" d="M157.7,609.2c-15.4-5.1-25.7-14.4-46.3-15.4
	c-11.3-1-18.5,1-17.5,13.4c3.1,7.2,7.2,13.4,10.3,20.6c-7.2-3.1-38-25.7-46.3-19.6c-12.4,9.3-10.3,22.7-4.1,44.3
	c-6.2-4.1-22.6-31.9-32.9-15.4c-6.2,10.3,1,39.1,3.1,50.4c4.1,16.5,8.2,56.6,14.4,62.8c10.3,10.3,20.6,2.1,16.4-12.3
	c-2-11.3-3.1-20.6-5.1-32.9c-2-10.3-5.1-21.6-7.2-31.9c4.1,2.1,11.3,14.4,22.6,24.7c4.1,3.1,9.3,9.3,12.4,11.3
	c7.2,4.1,13.4,1,16.4-4.1c5.1-11.3-6.2-27.8-9.2-37c-5.1-11.3-10.3-21.6-15.4-32.9c16.4,5.1,38,21.6,51.4,30.8
	c4.1,3.1,10.3,9.3,16.5,11.3c7.2,3.1,14.4-2.1,14.4-10.3c0-5.1-6.2-15.4-9.2-18.5c-8.3-15.4-12.4-19.6-22.6-32.9
	c23.7,4.1,51.4,30.9,64.8,24.7c13.4-7.2-4.1-24.7-13.4-40.1c-3.1-7.2-7.2-14.4-11.3-19.5c-5.1-8.2-16.4-4.1-12.4,8.2
	C148.4,594.8,154.6,602,157.7,609.2L157.7,609.2z"/>
<path fill-rule="evenodd" clip-rule="evenodd" fill="#4D4D4D" d="M1280,65.9l-1-1c-5.1-6.2-25.7-41.2-26.8-46.3
	c-5.1-11.3-16.4-12.3-21.6-3.1l-8.2,29.9c-11.3-12.4-11.3-28.8-24.7-24.7c-15.4,4.1-1,26.7,3.1,35c5.1,7.2,16.4,26.8,23.7,28.8
	c8.2,3.1,13.4-3.1,16.4-8.2l4.1-21.6l2.1,2.1c1,1,1,2.1,2,3.1c5.1,9.3,20.6,35,26.7,39.1c5.1,3.1,18.5,2.1,22.6-12.4l8.2-29.8
	c7.2,19.5,10.3,61.7,28.8,72c20.6,11.3,27.8-37,37-60.7c9.3-27.8,8.2-19.5,16.4-34c8.2-15.4-7.2-27.8-18.5-15.4
	c-12.3,11.3-24.7,52.5-30.8,71c-4.1-12.3-7.2-26.7-10.3-39.1c-2.1-5.1-9.3-37.1-10.3-39.1C1300.6-11.3,1283.1,55.6,1280,65.9
	L1280,65.9z"/>
<path fill-rule="evenodd" clip-rule="evenodd" fill="#4D4D4D" d="M437.5,121.5c-9.3-1.1-65.8-20.6-76.1-25.7
	c-13.4-5.1-26.7-18.5-35-5.1c-5.1,9.3,2.1,13.4,6.2,17.5c12.3,9.2,40.1,73,50.4,77.2c9.2,3.1,15.4-3.1,16.4-9.2
	c1-7.2-11.3-24.7-17.5-34l-9.2-16.5c10.3,2.1,31.9,9.3,42.2,12.4c12.4,4.1,57.6,25.7,55.5-1c-1-8.2-5.1-13.4-8.2-19.6
	c-6.2-11.3-12.4-24.7-18.5-37c6.2,2.1,13.4,8.2,19.5,11.3c8.2,3.1,14.4,5.1,22.6,7.2c12.4,4.1,43.2,13.4,49.4,1.1
	c4.1-9.3-2.1-16.5-10.3-17.5c-28.8-2.1-44.2-6.2-68.9-21.6c-13.4-7.2-23.7-15.4-36-23.7c-5.1-3.1-13.4-10.3-19.6-10.3
	c-8.2,1-13.4,10.3-8.2,18.5c3.1,4.1,6.2,7.2,13.4,16.5C414.8,76.2,432.3,108.1,437.5,121.5L437.5,121.5z"/>
<path fill-rule="evenodd" clip-rule="evenodd" fill="#4D4D4D" d="M542.4,361.2c-4.1,9.2-41.1,40.1-50.4,48.4
	c-5.1,4.1-10.3,6.2-13.4,11.3c-5.1,5.1-3.1,13.4,3.1,15.4l42.2-6.2c-2,3.1-2,2.1-5.1,5.1c-2,2.1-3.1,3.1-5.1,5.1L488.9,459
	c-4.1,3.1-10.3,4.1-8.2,13.4c2.1,13.4,18.5,5.1,29.8,4.1l39.1-4.1c-3.1,4.1-10.3,9.2-14.4,13.4c-11.3,10.3-17.5,16.5-30.9,26.7
	c-6.2,5.1-28.8,20.6-29.8,27.8c-2.1,7.2,6.2,13.4,13.4,13.4c10.3-2.1,62.7-55.6,75.1-67.9c9.3-8.2,29.8-18.5,30.9-26.7
	c1-11.3-9.3-11.3-17.5-9.3l-52.5,5.1l29.9-25.7c4.1-4.1,6.2-5.1,10.3-8.3c8.2-7.2,6.2-20.6-9.3-18.5l-31.9,6.2
	c3.1-7.2,20.6-19.6,27.8-27.8c5.1-6.2,6.2-9.2,12.4-15.4c3.1-3.1,10.3-12.3,5.1-17.5c-5.1-5.1-16.4-2.1-24.7-2.1
	c-9.3,0-18.5,0-26.7,1c-11.3,1.1-11.3,11.3-2.1,13.4C521.8,361.2,534.1,361.2,542.4,361.2L542.4,361.2z"/>
<path fill-rule="evenodd" clip-rule="evenodd" fill="#4D4D4D" d="M818.1,863.4c-11.3-6.2-45.3-37-56.6-47.3
	c-5.1-4.1-12.3-13.4-17.5-17.5c-8.2-6.2-19.6,1-17.5,11.3c0,5.1,11.3,15.4,14.4,19.5c6.2,6.2,28.8,26.7,37,32.9
	c5.1,5.1,11.3,10.3,18.5,15.4l28.8,23.7c2,3.1,6.2,6.2,12.3,5.1c11.3-1.1,13.4-10.3,11.3-21.6c-4.1-19.5-9.3-36-14.4-55.6
	l-16.4-53.5c8.2,2.1,44.2,24.7,54.5,23.7c6.2-1,12.3-7.2,9.2-15.4c-3.1-8.2-25.7-13.4-33.9-18.5c-15.4-8.2-17.5-9.2-33.9-19.5
	c-5.1-3.1-10.3-6.2-16.4-9.3c-7.2-4.1-15.4-1-17.5,5.1c-2,9.3,4.1,13.4,7.2,19.6C792.3,773.9,817,853.1,818.1,863.4L818.1,863.4z"/>
<path fill-rule="evenodd" clip-rule="evenodd" fill="#4D4D4D" d="M868.5,148.2c-5.1-2.1-29.8-43.2-35-51.5
	c-7.2-10.3-14.4-23.6-22.6-18.5c-7.2,2.1-11.3,21.6-12.4,31.9c-2,14.4-2,25.7-2,41.1c0,8.2-2.1,36,10.3,30.9
	c6.2-2.1,4.1-10.3,4.1-17.5c-1-20.6,2.1-40.1,5.1-60.7c7.2,11.3,14.4,23.7,21.6,35c6.2,9.3,17.5,26.8,24.7,32.9
	c6.2,5.1,15.4,5.1,19.5-1c7.2-11.3,10.3-58.7,11.3-75.1c16.5,22.7,36,51.5,52.5,72c4.1,5.1,8.2,14.4,18.5,12.4
	c8.2-2.1,11.3-13.4,5.1-20.6c-15.4-13.4-57.6-72-65.8-90.5c-2.1-7.2-6.2-18.5-11.3-20.6c-18.5-7.2-16.4,29.8-18.5,42.2
	C871.5,110.2,869.5,128.7,868.5,148.2L868.5,148.2z"/>
<path fill-rule="evenodd" clip-rule="evenodd" fill="#4D4D4D" d="M656.6,892.2c-3.1,20.6-18.5,45.3-16.5,53.5
	c2.1,5.1,7.2,9.3,15.4,8.2c7.2-1,44.2-32.9,53.5-41.1c-2.1,12.4-22.6,40.1-4.1,43.2c10.3,1.1,13.4-9.2,16.4-15.4
	c3.1-8.2,6.2-15.4,8.2-24.7c2.1-7.2,7.2-19.5,2.1-25.7c-6.2-7.2-15.4-5.1-23.7-1l-36,27.8c3.1-12.3,7.2-27.8,12.4-39.1
	c5.1-12.4-1-28.8-25.7-15.4c-25.7,15.4-36,32.9-54.5,51.4c-4.1,4.1-8.2,9.3-12.4,13.4c-4.1,5.1-8.2,10.3-12.4,14.4
	c-5.1,6.2,0,15.4,8.2,14.4c8.3-2.1,22.6-17.5,28.8-23.7c4.1-5.1,8.3-8.2,13.4-13.4C636,911.7,648.3,896.3,656.6,892.2L656.6,892.2z"
	/>
<path fill-rule="evenodd" clip-rule="evenodd" fill="#4D4D4D" d="M238,438.4v10.3c-9-4.1-28.8-28.8-34-42.2
	c-2.1-4.1-6.2-6.2-12.4-4.1c-5.1,4.1-3.1,9.3-2.1,15.4c1,27.8,2.1,34,1,58.6c-1-3.1-17.5-27.8-20.6-29.8c-7.2-6.2-14.4,0-10.3,9.3
	c2.1,2,4.1,5.1,5.1,8.2c4.1,8.2,20.6,36,25.7,40.1c4.1,6.2,11.3,7.2,15.4-1c3.1-11.3,1-48.4,1-60.7c3.1,2,11.3,13.4,24.7,23.7
	c6.2,3.1,13.4,6.2,19.6,1l5.1-19.5c1-8.3-5.1-47.3-6.2-57.6c5.1,3.1,31.9,31.9,41.1,16.5c7.2-10.3-5.1-14.4-11.3-17.5
	c-5.1-2-15.4-11.3-19.6-14.4c-4.1-5.1-12.3-14.4-16.4-16.5C218.4,349.9,238,413.7,238,438.4L238,438.4z"/>
<path fill-rule="evenodd" clip-rule="evenodd" fill="#4D4D4D" d="M190.6,304.6c-3.1,6.2-16.4,21.6-21.6,27.8l-23.7,25.7
	c-7.2,12.3,9.2,27.8,22.6,12.3l44.2-54.5c5.1-6.2,20.6-21.6,21.6-27.8c2.1-19.5-26.7-11.3-32.9-10.3l-43.2,7.2
	c2.1-7.2,16.5-39.1,21.6-52.5c5.1-16.5-7.2-23.7-14.4-14.4l-24.7,50.4c-4.1,8.2-10.3,16.5-9.3,28.8C134,318,175.2,306.7,190.6,304.6
	L190.6,304.6z"/>
<path fill-rule="evenodd" clip-rule="evenodd" fill="#4D4D4D" d="M1367.6,886.3c-13.4-2.1-48.4-18.5-53.5-2.1
	c-1,7.2,6.2,19.6,8.2,26.7l7.2,28.8c-9.2-2-42.2-18.5-47.3-7.2c-5.1,11.3,21.6,18.5,36,25.7c7.2,2.1,16.4,8.3,22.6,9.3
	c9.3,1,18.5-6.2,16.5-15.4c0-3.1-3.1-8.2-4.1-11.3c-3.1-8.2-8.2-27.8-10.3-38.1c9.3,2.1,18.5,5.1,26.7,7.2
	c33.9,8.2,19.6-32.9,14.4-73.1c0-9.2,0-23.7-6.2-27.8c-6.2-4.1-15.4-2.1-16.4,14.4C1360.4,843.1,1367.6,866.7,1367.6,886.3
	L1367.6,886.3z"/>
</svg>
